<svg width="133" height="19" viewBox="0 0 133 19" fill="none" xmlns="http://www.w3.org/2000/svg">
<path d="M9.45 18.125C11.925 18.125 14.15 17.3 15.675 15.675L14.875 14.85C13.375 16.325 11.55 16.95 9.5 16.95C5.025 16.95 1.65 13.65 1.65 9.25C1.65 4.85 5.025 1.55 9.5 1.55C11.55 1.55 13.375 2.15 14.875 3.625L15.675 2.8C14.15 1.175 11.925 0.374999 9.45 0.374999C4.25 0.374999 0.375 4.15 0.375 9.25C0.375 14.35 4.25 18.125 9.45 18.125ZM19.9455 18H21.2205V0.499999H19.9455V18ZM40.2936 0.499999V15.7L28.3936 0.499999H27.3186V18H28.5936V2.8L40.5186 18H41.5686V0.499999H40.2936ZM48.9549 16.85V9.675H58.2799V8.55H48.9549V1.65H59.3799V0.499999H47.6799V18H59.7549V16.85H48.9549ZM71.2535 18.25C74.1535 18.25 76.6785 17.375 78.3785 15.425L76.4785 13.375C75.1535 14.75 73.4535 15.4 71.5035 15.4C67.9285 15.4 66.0285 13.475 66.0285 10.575C66.0285 6.475 68.8285 3.1 73.3035 3.1C75.3785 3.1 76.8785 3.825 77.8285 5.15L80.1785 3.175C78.9535 1.275 76.5285 0.249999 73.5285 0.249999C67.0285 0.249999 62.7535 4.85 62.7535 10.775C62.7535 15.2 65.9285 18.25 71.2535 18.25ZM80.5426 18H92.9426L93.4926 15.25H84.3426L87.2926 0.499999H84.0426L80.5426 18ZM103.264 18.25C107.964 18.25 110.889 15.675 111.914 10.525L113.914 0.499999H110.714L108.764 10.3C108.039 13.875 106.364 15.4 103.589 15.4C101.114 15.4 99.7143 14.25 99.7143 11.875C99.7143 11.425 99.7893 10.9 99.8893 10.325L101.864 0.499999H98.6143L96.6393 10.375C96.5143 11.025 96.4393 11.65 96.4393 12.25C96.4393 15.95 98.9643 18.25 103.264 18.25ZM129.141 8.95C130.941 8.225 132.266 6.675 132.266 4.425C132.266 1.875 130.191 0.499999 126.566 0.499999H118.491L114.991 18H123.766C128.341 18 131.516 16.2 131.516 12.5C131.516 10.7 130.616 9.5 129.141 8.95ZM125.841 3.05C127.766 3.05 128.866 3.65 128.866 4.975C128.866 6.9 127.291 7.875 124.866 7.875H120.241L121.216 3.05H125.841ZM123.991 15.45H118.741L119.741 10.4H125.116C127.116 10.4 128.266 10.95 128.266 12.5C128.266 14.45 126.691 15.45 123.991 15.45Z" fill="white"/>
</svg>
